<?xml version="1.0" encoding="UTF-8" standalone="no"?>
<svg
   xmlns:dc="http://purl.org/dc/elements/1.1/"
   xmlns:cc="http://creativecommons.org/ns#"
   xmlns:rdf="http://www.w3.org/1999/02/22-rdf-syntax-ns#"
   xmlns:svg="http://www.w3.org/2000/svg"
   xmlns="http://www.w3.org/2000/svg"
   xmlns:sodipodi="http://sodipodi.sourceforge.net/DTD/sodipodi-0.dtd"
   xmlns:inkscape="http://www.inkscape.org/namespaces/inkscape"
   xml:space="preserve"
   width="500"
   height="500"
   version="1.1"
   style="clip-rule:evenodd;fill-rule:evenodd;image-rendering:optimizeQuality;shape-rendering:geometricPrecision;text-rendering:geometricPrecision"
   viewBox="0 0 13229.167 13229.167"
   id="svg1029"
   sodipodi:docname="ic-message.svg"
   inkscape:version="1.0.2 (e86c870879, 2021-01-15)"><metadata
   id="metadata1033"><rdf:RDF><cc:Work
       rdf:about=""><dc:format>image/svg+xml</dc:format><dc:type
         rdf:resource="http://purl.org/dc/dcmitype/StillImage" /><dc:title></dc:title></cc:Work></rdf:RDF></metadata><sodipodi:namedview
   pagecolor="#ffffff"
   bordercolor="#666666"
   borderopacity="1"
   objecttolerance="10"
   gridtolerance="10"
   guidetolerance="10"
   inkscape:pageopacity="0"
   inkscape:pageshadow="2"
   inkscape:window-width="1294"
   inkscape:window-height="704"
   id="namedview1031"
   showgrid="false"
   inkscape:zoom="0.43959012"
   inkscape:cx="291.97742"
   inkscape:cy="300.15554"
   inkscape:window-x="0"
   inkscape:window-y="0"
   inkscape:window-maximized="1"
   inkscape:current-layer="svg1029"
   units="px" />
 <defs
   id="defs1021">
  <style
   type="text/css"
   id="style1019">
   <![CDATA[
    .fil0 {fill:none}
    .fil1 {fill:#BD1F5C}
   ]]>
  </style>
 
  
  
  
 </defs>
 <path
   class="fil1"
   d="m 8282.7814,9820.6723 -1485.6354,1719.7927 -181.2396,209.02 -181.2396,-209.02 L 4949.0315,9820.6723 H 803.01041 c -220.92708,0 -420.68751,-89.9584 -566.20834,-235.4792 h -1.32292 C 89.958316,9439.6723 -1.9073483e-5,9238.5889 -1.9073483e-5,9017.6618 V 2282.6929 C -1.9073483e-5,2061.7658 89.958316,1860.6825 235.47915,1715.1617 380.99999,1569.6408 582.08333,1479.6825 803.01041,1479.6825 H 12426.157 c 220.927,0 422.01,89.9583 567.531,235.4792 145.521,145.5208 235.479,346.6041 235.479,567.5312 v 6734.9689 c 0,220.9271 -89.958,422.0105 -235.479,567.5313 h -1.323 c -145.521,145.5208 -345.281,235.4792 -566.208,235.4792 H 8281.4585 Z M 9116.219,4691.7241 c 264.5833,0 504.0312,107.1563 677.3333,281.7813 173.3021,173.3021 280.4587,412.75 280.4587,677.3333 0,264.5834 -107.1566,504.0313 -280.4587,677.3334 -174.625,174.625 -414.0729,281.7812 -677.3333,281.7812 -264.5834,0 -504.0313,-107.1562 -677.3334,-281.7812 -173.3021,-173.3021 -280.4583,-412.75 -280.4583,-677.3334 0,-264.5833 107.1562,-504.0312 280.4583,-677.3333 173.3021,-174.625 414.0729,-281.7813 677.3334,-281.7813 z m -2498.9897,0 c 264.5834,0 504.0313,107.1563 677.3334,281.7813 173.3021,173.3021 280.4583,412.75 280.4583,677.3333 0,264.5834 -107.1562,504.0313 -280.4583,677.3334 -174.625,174.625 -414.073,281.7812 -677.3334,281.7812 -263.2604,0 -504.0312,-107.1562 -677.3333,-281.7812 -173.3021,-173.3021 -280.4584,-412.75 -280.4584,-677.3334 0,-264.5833 107.1563,-504.0312 280.4584,-677.3333 173.3021,-174.625 414.0729,-281.7813 677.3333,-281.7813 z m -2498.9895,0 c 264.5834,0 504.0313,107.1563 677.3334,281.7813 173.3019,173.3021 280.4582,412.75 280.4582,677.3333 0,264.5834 -107.1563,504.0313 -280.4582,677.3334 -174.625,174.625 -414.073,281.7812 -677.3334,281.7812 -263.2605,0 -504.0314,-107.1562 -677.3335,-281.7812 -173.3021,-173.3021 -280.4583,-412.75 -280.4583,-677.3334 0,-264.5833 107.1562,-504.0312 280.4583,-677.3333 173.3021,-174.625 414.073,-281.7813 677.3335,-281.7813 z"
   id="path1026"
   style="stroke-width:1.32292" />
</svg>
